PathFileType	4	(X/Y/Z)	C:/Users/opensim2020/Desktop/walking_exp_matlab/subject02_walking07_straight_04.trc																																																																																																																																																				
DataRate	CameraRate	NumFrames	NumMarkers	Units	OrigDataRate	OrigDataStartFrame	OrigNumFrames																																																																																																																																																
100	100	7	50	mm	100	2876	207																																																																																																																																																
Frame#	Time	LFHD			RFHD			LBHD			RBHD			C7			T10			CLAV			STRN			RBAK			LSHO			LUPA			LELB			LFRM			LWRA			LWRB			LFIN			RSHO			RUPA			RELB			RFRM			RWRA			RWRB			RFIN			LASI			RASI			LPSI			RPSI			LTHI			LKNE			LTIB			LANK			LHEE			LTOE			RTHI			RKNE			RTIB			RANK			RHEE			RTOE			*39			*40			*41			*42			*43			*44			*45			*46			*47			*48			*49		
		X1	Y1	Z1	X2	Y2	Z2	X3	Y3	Z3	X4	Y4	Z4	X5	Y5	Z5	X6	Y6	Z6	X7	Y7	Z7	X8	Y8	Z8	X9	Y9	Z9	X10	Y10	Z10	X11	Y11	Z11	X12	Y12	Z12	X13	Y13	Z13	X14	Y14	Z14	X15	Y15	Z15	X16	Y16	Z16	X17	Y17	Z17	X18	Y18	Z18	X19	Y19	Z19	X20	Y20	Z20	X21	Y21	Z21	X22	Y22	Z22	X23	Y23	Z23	X24	Y24	Z24	X25	Y25	Z25	X26	Y26	Z26	X27	Y27	Z27	X28	Y28	Z28	X29	Y29	Z29	X30	Y30	Z30	X31	Y31	Z31	X32	Y32	Z32	X33	Y33	Z33	X34	Y34	Z34	X35	Y35	Z35	X36	Y36	Z36	X37	Y37	Z37	X38	Y38	Z38	X39	Y39	Z39	X40	Y40	Z40	X41	Y41	Z41	X42	Y42	Z42	X43	Y43	Z43	X44	Y44	Z44	X45	Y45	Z45	X46	Y46	Z46	X47	Y47	Z47	X48	Y48	Z48	X49	Y49	Z49	X50	Y50	Z50
																																																																																																																																																							
156	1.55	702.50098	1714.97437	970.16235	696.20264	1700.09875	1112.66113	562.22888	1661.32568	960.38202	543.53174	1646.78223	1101.86743	492.77548	1516.39294	1045.70142	441.62207	1239.20703	1059.96167	631.63831	1447.19836	1023.00476	687.23102	1278.47339	1044.82068	442.23886	1343.90295	1124.65588	536.19806	1480.46582	864.71655	457.57138	1294.08643	802.12006	413.64618	1160.31665	804.39246	373.77481	1035.36096	793.65771	388.03384	895.09186	814.8327	339.34125	916.16974	793.51398	329.22079	848.7356	793.05847	585.65857	1497.55481	1222.87085	609.84229	1314.75879	1325.77917	673.49664	1181.86414	1354.34924	751.76794	1089.05908	1366.59241	845.6629	996.21082	1339.30603	811.13391	973.28864	1377.30005	873.80078	937.28815	1375.69971	680.89233	978.41583	936.62317	659.12335	962.08063	1192.04858	464.97394	1022.18024	998.65894	450.53174	1022.76038	1112.12598	667.07733	674.06421	858.51843	705.53571	477.23163	891.61987	730.04248	285.48587	888.23737	836.10437	83.95702	900.64172	821.84204	45.60098	957.18707	989.82123	99.60286	875.46429	536.56207	659.19873	1232.10791	497.83228	452.62415	1183.4259	417.02307	281.12137	1180.44763	362.48624	96.18399	1133.71924	323.92764	44.59925	1074.69348	505.74835	34.66438	1160.78455	609.75049	1797.52075	1055.2666	NaN	NaN	NaN	NaN	NaN	NaN	NaN	NaN	NaN	NaN	NaN	NaN	NaN	NaN	NaN	NaN	NaN	NaN	NaN	NaN	NaN	NaN	NaN	NaN	NaN	NaN	NaN	NaN	NaN	NaN
157	1.56	711.26971	1713.13586	968.81458	705.55402	1698.33496	1111.18323	571.27264	1659.79004	959.29517	552.80731	1645.2478	1100.77893	501.54434	1514.52271	1044.776	450.82309	1237.38733	1059.29785	640.59406	1445.46863	1021.92639	696.35132	1276.729	1043.69446	451.7052	1341.95117	1123.22949	544.53308	1478.8125	863.93762	466.39322	1292.02893	801.6579	422.50296	1158.50415	804.1604	382.2211	1033.60168	793.36072	396.03687	893.31165	813.3175	347.26898	914.54187	792.85077	337.33289	847.19775	792.2782	595.32251	1495.57813	1221.87573	620.17615	1312.78076	1324.39331	684.69312	1180.53247	1352.94666	763.51416	1087.9856	1364.87756	857.92596	995.71429	1337.53809	823.56549	972.54199	1375.51379	886.57495	936.84888	1374.03223	690.27234	976.91724	936.40027	668.84204	960.36597	1191.40149	474.21292	1020.57397	997.72595	459.90192	1021.07642	1111.19971	679.06787	672.20203	858.94403	718.27417	476.5079	891.43097	743.33105	284.76105	887.98828	849.48895	83.43073	901.6405	834.68121	45.12146	958.39941	1003.16071	99.57976	876.7066	543.38495	658.24225	1231.7478	502.87173	451.87903	1183.5387	419.83371	281.40015	1180.48706	363.08453	96.89638	1133.57922	324.25232	45.71172	1074.42297	505.55542	34.62957	1160.81335	619.05536	1795.78113	1053.93103	-2845.97461	1033.9729	3356.93359	NaN	NaN	NaN	NaN	NaN	NaN	NaN	NaN	NaN	NaN	NaN	NaN	NaN	NaN	NaN	NaN	NaN	NaN	NaN	NaN	NaN	NaN	NaN	NaN	NaN	NaN	NaN
158	1.57	720.63922	1711.50452	967.04681	714.88965	1696.58044	1109.55591	579.94916	1657.95166	958.17682	562.02429	1643.68042	1099.74963	510.69418	1512.86804	1044.20703	460.19098	1235.58093	1058.58215	649.58844	1443.79736	1020.67517	705.86084	1275.2113	1042.45886	460.92377	1340.23633	1122.83362	552.85168	1477.1012	863.02155	475.06873	1290.19153	800.92908	431.57684	1156.37781	803.77972	391.4017	1031.78564	792.51349	405.21341	891.08661	811.51538	356.51694	912.77075	791.85986	345.95715	845.2016	791.17944	604.73834	1493.76135	1220.83557	630.41364	1310.6748	1322.82874	695.81763	1178.79736	1351.40137	774.99457	1086.68762	1363.12561	870.01288	995.07013	1335.85571	835.61041	971.51917	1373.58203	898.724	936.4079	1372.17639	699.81219	975.40033	935.93079	677.40625	958.4137	1191.40161	483.5932	1018.96429	996.81055	469.49475	1019.46429	1110.36108	690.40778	670.72034	858.82458	731.91248	476.1709	891.13171	756.06604	284.08115	887.55597	860.63593	82.32668	902.86896	846.10248	45.00606	959.12445	1014.59558	97.71995	878.21545	550.47235	657.2995	1231.41248	508.24551	451.16129	1183.61853	422.68832	281.7572	1180.55908	363.76639	98.05683	1133.74854	324.51282	47.14172	1074.39771	505.6767	34.62827	1161.07764	628.52313	1794.26343	1052.73621	NaN	NaN	NaN	NaN	NaN	NaN	NaN	NaN	NaN	NaN	NaN	NaN	NaN	NaN	NaN	NaN	NaN	NaN	NaN	NaN	NaN	NaN	NaN	NaN	NaN	NaN	NaN	NaN	NaN	NaN
159	1.58	729.18994	1709.69031	965.21991	724.22888	1694.94702	1108.0144	588.82605	1656.41626	956.92029	571.39032	1642.2489	1098.49963	519.57434	1511.01245	1043.07312	469.49402	1233.8634	1057.89343	658.71771	1442.20459	1019.33307	714.64203	1273.41394	1041.14575	470.28625	1338.37537	1121.6969	561.27783	1475.36023	861.91217	485.07446	1288.07849	800.14581	441.31714	1154.08093	802.98901	401.24307	1029.61536	791.79681	414.50281	888.8468	809.49982	365.84045	910.52808	790.70154	355.41156	843.14978	789.896	614.28693	1491.89148	1219.7887	640.62122	1308.46057	1321.17639	706.58978	1176.89771	1349.48669	786.28931	1085.04065	1361.15344	881.27637	993.83807	1333.71606	847.22009	970.23633	1371.46277	910.49701	935.4881	1370.15247	709.59106	973.79425	935.07251	686.79449	956.54596	1190.64294	492.9548	1017.3725	996.08197	479.25906	1017.87061	1109.5741	703.75134	670.21497	857.82025	745.46295	475.77969	890.72205	768.06665	283.26944	887.12555	870.14441	80.87633	903.84711	855.492	43.18268	960.67731	1024.10522	94.62827	879.80524	557.75446	656.34515	1230.89624	513.8692	450.4501	1183.72888	425.94464	282.11087	1180.50598	364.51266	99.28863	1133.95251	324.77274	48.75765	1074.44629	505.79001	34.63823	1161.3031	637.7002	1792.80127	1051.30042	-2845.2019	1033.96692	3360.27979	NaN	NaN	NaN	NaN	NaN	NaN	NaN	NaN	NaN	NaN	NaN	NaN	NaN	NaN	NaN	NaN	NaN	NaN	NaN	NaN	NaN	NaN	NaN	NaN	NaN	NaN	NaN
160	1.59	738.13959	1708.00293	963.48132	733.5957	1693.32275	1106.3501	597.60748	1654.98511	955.76038	580.59302	1640.79504	1097.40039	528.92664	1509.3551	1042.29614	478.96225	1232.18921	1057.01331	667.77203	1440.64697	1018.00073	724.10931	1272.0719	1039.7157	479.60684	1336.47595	1120.80542	569.58679	1473.66943	860.82263	494.46417	1285.81812	799.13635	451.31424	1151.85388	802.06049	411.52707	1027.25256	790.70941	424.93219	886.5506	807.37671	376.01184	908.26459	789.3316	366.07779	840.9317	788.43213	623.88934	1490.07947	1218.69727	650.67224	1306.22693	1319.49194	717.18323	1175.24963	1347.94873	797.14368	1083.36975	1359.04688	893.13751	992.9328	1331.8656	858.41779	968.53955	1369.17273	921.84015	934.30096	1367.92883	719.58459	972.15649	933.87787	696.45624	954.6817	1189.63379	502.58725	1015.60376	995.21448	489.21616	1016.32233	1108.77795	716.71472	670.12769	856.65771	758.63135	475.21106	890.13068	779.10339	282.33374	886.87012	878.26379	79.09578	904.82379	862.4032	41.62724	962.29358	1032.16101	90.78678	881.30902	565.20935	655.43909	1230.42993	519.77032	449.76892	1183.84143	429.41486	282.6571	1180.42163	365.29855	100.62292	1134.15637	325.086	50.76901	1074.56995	505.72293	34.50608	1161.52722	647.19476	1791.16174	1049.92456	-2845.22656	1034.12952	3360.29419	NaN	NaN	NaN	NaN	NaN	NaN	NaN	NaN	NaN	NaN	NaN	NaN	NaN	NaN	NaN	NaN	NaN	NaN	NaN	NaN	NaN	NaN	NaN	NaN	NaN	NaN	NaN
161	1.6	747.02521	1706.51831	961.9574	742.95367	1691.77698	1104.6449	606.49426	1653.52307	954.47607	589.92975	1639.38342	1096.01929	537.81744	1507.71985	1041.00598	488.40762	1230.58276	1056.12463	676.96051	1439.24146	1016.45148	733.40979	1270.61963	1038.15723	489.134	1334.90857	1119.72571	578.00403	1471.92871	859.57159	503.77277	1283.68311	797.85883	461.79828	1149.42834	801.12079	421.75006	1024.95264	789.29327	436.18903	884.08765	805.16095	387.24362	905.8847	787.76648	376.92383	838.49872	786.62433	633.69714	1488.22375	1217.53894	660.63403	1303.96692	1317.69604	727.63074	1173.08521	1345.42419	807.72156	1081.70959	1356.84814	903.69006	991.06927	1329.35425	869.18677	966.98425	1366.70313	932.70117	932.83972	1365.5343	729.89337	970.56177	932.21527	706.39801	952.80396	1188.27417	512.40741	1013.77228	994.34564	499.38315	1014.73877	1107.92188	730.05713	669.9693	855.60651	771.09436	474.45035	889.38898	788.95111	281.25452	886.84723	885.09924	76.88646	905.74835	868.62109	40.21127	962.39642	1039.02698	86.66571	882.72681	572.85651	654.62219	1229.85144	526.08319	449.16498	1183.87537	433.06036	283.36017	1180.41431	366.14859	102.31699	1134.51001	325.43994	53.03374	1074.82751	505.99014	34.56543	1161.8645	656.26062	1789.7312	1048.43225	-2845.22217	1034.10193	3360.31372	NaN	NaN	NaN	NaN	NaN	NaN	NaN	NaN	NaN	NaN	NaN	NaN	NaN	NaN	NaN	NaN	NaN	NaN	NaN	NaN	NaN	NaN	NaN	NaN	NaN	NaN	NaN
162	1.61	756.2149	1704.91663	960.32202	752.29565	1690.2749	1102.86414	615.35138	1652.28772	952.95959	599.22974	1638.0022	1094.70789	546.97607	1506.22961	1039.87585	498.00613	1228.96387	1054.99792	686.04987	1437.88721	1014.90704	743.04559	1269.52686	1036.59399	498.72311	1333.32239	1118.60889	586.55731	1470.29114	858.21381	513.45746	1281.5929	796.63489	472.40381	1147.00439	799.85565	432.74225	1022.78558	787.77563	447.52032	881.59802	802.8595	398.29028	903.2959	785.91504	388.32132	835.93115	784.53625	643.50574	1486.62329	1216.24707	670.42841	1301.95081	1316.15503	737.89771	1171.12952	1343.15723	818.07166	1079.8302	1354.50403	914.29181	989.56195	1327.05518	879.51715	964.95856	1363.92017	943.03851	931.09149	1362.98401	740.41791	969.05597	930.22491	716.61713	951.01117	1186.67432	522.41815	1012.17023	993.53528	509.66821	1013.13318	1106.93787	743.30762	669.617	854.60773	782.79578	473.53473	888.50751	797.9093	279.93011	886.73749	890.82367	74.36989	906.70215	873.83691	37.49483	963.6355	1044.83228	82.36716	883.98505	580.74005	653.84766	1229.21729	532.76147	448.6467	1183.96655	437.06262	284.21289	1180.26392	367.23355	104.18476	1134.9325	326.07715	55.51737	1075.15845	506.00595	34.4819	1162.29858	665.66565	1788.46375	1047.07239	-2845.1499	1033.8457	3360.26733	NaN	NaN	NaN	NaN	NaN	NaN	NaN	NaN	NaN	NaN	NaN	NaN	NaN	NaN	NaN	NaN	NaN	NaN	NaN	NaN	NaN	NaN	NaN	NaN	NaN	NaN	NaN
